<svg width="20" height="20" viewBox="0 0 20 20" fill="none" xmlns="http://www.w3.org/2000/svg">
<path fill-rule="evenodd" clip-rule="evenodd" d="M9.99935 3.33433C8.37249 3.33433 6.87282 3.4685 5.6691 3.62748C4.58579 3.77055 3.7689 4.58743 3.62583 5.67075C3.46685 6.87447 3.33268 8.37414 3.33268 10.001C3.33268 11.6279 3.46685 13.1275 3.62583 14.3312C3.7689 15.4146 4.58579 16.2314 5.6691 16.3745C6.87282 16.5335 8.37249 16.6677 9.99935 16.6677C11.6262 16.6677 13.1259 16.5335 14.3296 16.3745C15.4129 16.2314 16.2298 15.4146 16.3729 14.3312C16.5318 13.1275 16.666 11.6279 16.666 10.001C16.666 8.37414 16.5318 6.87447 16.3729 5.67075C16.2298 4.58743 15.4129 3.77055 14.3296 3.62748C13.1259 3.4685 11.6262 3.33433 9.99935 3.33433ZM5.45088 1.97516C3.62022 2.21693 2.21529 3.62187 1.97351 5.45253C1.80729 6.71107 1.66602 8.28539 1.66602 10.001C1.66602 11.7166 1.80729 13.2909 1.97351 14.5495C2.21529 16.3801 3.62022 17.7851 5.45088 18.0268C6.70942 18.1931 8.28374 18.3343 9.99935 18.3343C11.715 18.3343 13.2893 18.1931 14.5478 18.0268C16.3785 17.7851 17.7834 16.3801 18.0252 14.5495C18.1914 13.2909 18.3327 11.7166 18.3327 10.001C18.3327 8.28539 18.1914 6.71107 18.0252 5.45253C17.7834 3.62187 16.3785 2.21693 14.5478 1.97516C13.2893 1.80894 11.715 1.66766 9.99935 1.66766C8.28374 1.66766 6.70942 1.80894 5.45088 1.97516Z" fill="currentColor"/>
<path fill-rule="evenodd" clip-rule="evenodd" d="M8.16075 6.49508C7.83531 6.82052 7.83531 7.34816 8.16075 7.6736L10.4882 10.001L8.16075 12.3284C7.83531 12.6539 7.83531 13.1815 8.16075 13.5069C8.48618 13.8324 9.01382 13.8324 9.33926 13.5069L12.2559 10.5903C12.5814 10.2648 12.5814 9.73719 12.2559 9.41175L9.33926 6.49508C9.01382 6.16965 8.48618 6.16965 8.16075 6.49508Z" fill="currentColor"/>
</svg>
