<svg width="44" height="44" viewBox="0 0 44 44" fill="none" xmlns="http://www.w3.org/2000/svg">
<path d="M21.5555 2.01327C19.6329 2.08053 17.8266 2.98371 15.8932 4.75202C13.9599 6.52032 11.4317 11.7573 11.4317 11.7573C11.4317 11.7573 10.9527 12.878 9.5247 16.3304C8.09675 19.7827 6.20732 27.3888 8.75476 33.3851C10.4595 37.3978 12.4727 38.9621 15.2984 40.5264C18.124 42.0906 25.5714 42.5534 28.5461 41.2088C32.4132 39.4608 34.1237 38.2025 35.6854 32.9585C36.1442 28.3683 35.1732 24.9097 33.975 21.8654C32.7767 18.8212 32.9668 19.0009 31.967 17.1593C30.6284 14.3356 29.6616 13.0582 29.6616 10.2345C28.1743 4.83696 27.505 4.56805 25.9432 3.29066C24.084 2.09962 23.4781 1.94602 21.5555 2.01327Z" fill="#203516"/>
<path d="M22.8469 2.50307C21.1107 2.50306 19.3747 3.35444 17.569 5.05725C15.7634 6.76006 13.4023 11.8031 13.4023 11.8031C13.4023 11.8031 12.955 12.8823 11.6214 16.2068C10.2878 19.5312 8.52322 26.8556 10.9023 32.6299C12.4944 36.4939 14.3746 38.0003 17.0135 39.5066C19.6524 41.013 25.568 41.381 29.0275 40.1616C33.1563 38.7061 34.2719 37.5302 35.6849 32.2863C36.4285 26.975 34.9193 24.5953 33.8002 21.6638C32.6812 18.7323 32.8908 19.1685 32.0408 17.361C30.9253 14.9889 30.1406 12.7511 30.0329 10.6861C28.8019 5.96085 27.8019 4.90426 26.5376 3.76135C24.8271 2.41673 23.7116 2.50308 22.8469 2.50307Z" fill="#396325"/>
<path d="M24.3686 4.69907C23.3895 4.81117 22.1357 5.36508 21.0872 6.6185C20.0388 7.87191 18.8148 11.1557 18.8148 11.1557C18.8148 11.1557 17.8231 14.1294 16.8759 17.3325C15.9287 20.5357 14.1158 26.3448 14.7797 30.972C15.4104 35.3671 17.0538 37.0144 19.8337 38.5221C22.6137 40.0299 26.7082 40.5543 29.5582 39.7589C32.4083 38.9635 35.6221 36.8319 36.1255 30.3696C36.6289 23.9074 31.0174 16.3284 30.3177 12.4017C29.9921 10.5744 29.5818 7.20255 27.8204 5.57542C26.6813 4.52321 25.3477 4.58696 24.3686 4.69907Z" fill="#FBFF30"/>
<path fill-rule="evenodd" clip-rule="evenodd" d="M27.7147 5.66988C26.6278 4.66583 25.3585 4.72174 24.3879 4.83287C23.4524 4.93999 22.2332 5.47261 21.2065 6.70001C20.6958 7.31056 20.1341 8.42881 19.6964 9.40791C19.4788 9.8948 19.2937 10.3428 19.163 10.6692C19.0976 10.8323 19.0459 10.965 19.0106 11.0567C18.9929 11.1026 18.9794 11.1383 18.9702 11.1624C18.9657 11.1745 18.9622 11.1837 18.9599 11.1899L18.9572 11.197L18.9466 11.2289C18.9391 11.2515 18.928 11.2849 18.9135 11.3286C18.8846 11.4161 18.8422 11.5447 18.7883 11.709C18.6806 12.0376 18.5272 12.5091 18.3441 13.0807C17.9779 14.224 17.4935 15.7673 17.0202 17.3677C16.9815 17.4987 16.9413 17.634 16.9 17.7733C15.9275 21.0493 14.2955 26.5474 14.9279 30.9552C15.2415 33.1407 15.8051 34.6295 16.6256 35.7563C17.4456 36.8823 18.5304 37.6585 19.9109 38.4072C22.6583 39.8973 26.7093 40.4138 29.515 39.6308C30.9182 39.2392 32.405 38.5208 33.6045 37.1079C34.8049 35.694 35.7275 33.573 35.9778 30.3606C36.2269 27.163 34.9625 23.6781 33.5355 20.4856C33.1792 19.6886 32.8135 18.9112 32.4594 18.1618C32.4257 18.0905 32.3921 18.0194 32.3586 17.9486C32.0406 17.2758 31.7335 16.6263 31.4541 16.0083C30.8376 14.6447 30.3494 13.422 30.1715 12.4235C30.1397 12.2451 30.1072 12.0528 30.0729 11.8493C29.9302 11.0045 29.7552 9.96848 29.4641 8.94749C29.1022 7.6783 28.5672 6.45733 27.7147 5.66988ZM18.8155 11.1561C18.6731 11.1173 18.6731 11.1173 18.6731 11.1173L18.6617 11.1516C18.6542 11.1742 18.643 11.2078 18.6285 11.2516C18.5995 11.3393 18.5571 11.468 18.5031 11.6326C18.3953 11.9616 18.2416 12.4337 18.0583 13.0059C17.6918 14.1503 17.2068 15.6954 16.7328 17.2982C16.693 17.4329 16.6516 17.5724 16.6089 17.7162C15.6389 20.9829 13.9926 26.527 14.6329 30.9898C14.9499 33.1993 15.5234 34.7317 16.3772 35.9042C17.2316 37.0775 18.3584 37.8788 19.7579 38.6378C22.5703 40.1632 26.7084 40.6955 29.6028 39.8878C31.0496 39.484 32.5948 38.7389 33.8405 37.2716C35.0854 35.8053 36.0214 33.6293 36.2745 30.3795C36.5288 27.1148 35.2391 23.5791 33.8113 20.3849C33.4538 19.5852 33.0871 18.8056 32.733 18.0561C32.6993 17.9849 32.6657 17.9138 32.6323 17.8431C32.314 17.1699 32.008 16.5225 31.7295 15.9065C31.1128 14.5427 30.6371 13.3456 30.4652 12.3808C30.434 12.2058 30.402 12.016 30.3679 11.8144C30.2252 10.9692 30.0474 9.91599 29.7522 8.88037C29.3871 7.60001 28.8363 6.32147 27.9273 5.48178C26.7361 4.38141 25.3382 4.453 24.3506 4.56608C23.3279 4.68317 22.0395 5.25838 20.9693 6.53781C20.4315 7.18067 19.857 8.33101 19.4206 9.30715C19.2012 9.79787 19.0148 10.2491 18.8833 10.5776C18.8175 10.7419 18.7654 10.8756 18.7297 10.9683C18.7118 11.0147 18.6981 11.0508 18.6888 11.0754C18.6841 11.0876 18.6806 11.097 18.6782 11.1034L18.6755 11.1106L18.6746 11.113L18.6746 11.1131C18.6746 11.1131 18.6746 11.1132 18.8155 11.1561ZM18.8155 11.1561L18.6746 11.1131L18.6738 11.1152L18.6731 11.1173L18.8155 11.1561Z" fill="#203516"/>
<ellipse rx="5.24281" ry="7.26973" transform="matrix(0.953066 -0.302761 0.267309 0.963611 26.4869 25.8866)" fill="#D8DB47"/>
<ellipse rx="5.05605" ry="6.42405" transform="matrix(0.972139 -0.234404 0.213827 0.976872 25.8513 26.3198)" fill="#624141"/>
<ellipse rx="2.43593" ry="3.07882" transform="matrix(0.93498 -0.3547 0.356357 0.93435 27.1677 24.8589)" fill="#845656"/>
</svg>
