<svg width="24" height="24" viewBox="0 0 24 24" fill="none" xmlns="http://www.w3.org/2000/svg">
<g clip-path="url(#clip0_3138_18830)">
<path d="M12 0C5.4 0 0 5.4 0 12C0 18.6 5.4 24 12 24C18.6 24 24 18.6 24 12C24 5.4 18.6 0 12 0Z" fill="black"/>
<path fill-rule="evenodd" clip-rule="evenodd" d="M9.67012 11.0424L12.0006 8.71189L14.3331 11.0444L15.689 9.68841L12.0006 6L8.31418 9.68641L9.67012 11.0424ZM6 12.0004L7.35559 10.6448L8.71118 12.0004L7.35559 13.356L6 12.0004ZM12.0006 15.2899L9.67011 12.9594L8.31216 14.3134L8.31416 14.3154L12.0006 18.0018L15.689 14.3134L14.333 12.9575L12.0006 15.2899ZM15.2888 12.0014L16.6444 10.6458L18 12.0014L16.6444 13.357L15.2888 12.0014ZM12.0006 10.625L13.3765 12.0009L12.0006 13.3788L10.6247 12.0029V11.9989L10.8663 11.7573L10.9841 11.6414L12.0006 10.625Z" fill="#F3BA2F"/>
</g>
<defs>
<clipPath id="clip0_3138_18830">
<rect width="24" height="24" fill="white"/>
</clipPath>
</defs>
</svg>
