<svg width="96" height="95" viewBox="0 0 96 95" fill="none" xmlns="http://www.w3.org/2000/svg">
<path d="M86.5832 47.5001C86.5832 68.8091 69.3088 86.0834 47.9998 86.0834C26.6909 86.0834 9.4165 68.8091 9.4165 47.5001C9.4165 26.1911 26.6909 8.91675 47.9998 8.91675C69.3088 8.91675 86.5832 26.1911 86.5832 47.5001Z" stroke="#45B26B" stroke-width="2"/>
<path fill-rule="evenodd" clip-rule="evenodd" d="M63.1707 36.8529C64.054 37.7363 64.054 39.1684 63.1707 40.0517L45.0754 58.147C44.1921 59.0303 42.7599 59.0303 41.8766 58.147L32.829 49.0994C31.9457 48.216 31.9457 46.7839 32.829 45.9005C33.7123 45.0172 35.1445 45.0172 36.0278 45.9005L43.476 53.3488L59.9719 36.8529C60.8552 35.9696 62.2873 35.9696 63.1707 36.8529Z" fill="#45B26B"/>
</svg>
