<svg width="384" height="151" viewBox="0 0 384 151" fill="none" xmlns="http://www.w3.org/2000/svg">
<path d="M230.583 47.5001C230.583 68.8091 213.309 86.0834 192 86.0834C170.691 86.0834 153.417 68.8091 153.417 47.5001C153.417 26.1911 170.691 8.91675 192 8.91675C213.309 8.91675 230.583 26.1911 230.583 47.5001Z" stroke="url(#paint0_linear_88_9495)" stroke-width="2"/>
<path fill-rule="evenodd" clip-rule="evenodd" d="M207.171 36.8529C208.054 37.7363 208.054 39.1684 207.171 40.0517L189.075 58.147C188.192 59.0303 186.76 59.0303 185.877 58.147L176.829 49.0994C175.946 48.216 175.946 46.7839 176.829 45.9005C177.712 45.0172 179.144 45.0172 180.028 45.9005L187.476 53.3488L203.972 36.8529C204.855 35.9696 206.287 35.9696 207.171 36.8529Z" fill="url(#paint1_linear_88_9495)"/>
<path d="M142.337 106.6L155.393 125.032V139H161.105V125.032L174.161 106.6H167.441L158.273 120.472L149.201 106.6H142.337ZM175.691 113.656V118.552H190.859C193.643 118.552 194.747 120.088 194.747 122.056V123.976H182.699C176.459 123.976 174.155 126.664 174.155 131.272C174.155 136.072 176.651 139 182.651 139H194.507C198.779 139 199.739 137.56 199.739 133.912V122.008C199.739 117.208 197.243 113.656 190.907 113.656H175.691ZM193.355 134.056H182.699C180.155 134.056 179.147 132.856 179.147 130.984C179.147 129.112 180.107 128.008 182.795 128.008H194.747V132.76C194.747 133.672 194.363 134.056 193.355 134.056ZM225.638 113.656L217.046 133.576H216.374C215.414 133.576 215.174 133.432 214.838 132.52L207.206 113.656H201.83L210.326 134.968C211.19 137.176 212.198 138.088 215.078 138.088L210.326 149.176H215.798L231.062 113.656H225.638ZM233.725 105.688L234.541 127.576H238.909L239.677 105.688H233.725ZM233.965 132.472V139H239.437V132.472H233.965Z" fill="white"/>
<defs>
<linearGradient id="paint0_linear_88_9495" x1="137.337" y1="76.1453" x2="225.066" y2="-0.805538" gradientUnits="userSpaceOnUse">
<stop stop-color="#CF47FF"/>
<stop offset="1" stop-color="#FBA04C"/>
</linearGradient>
<linearGradient id="paint1_linear_88_9495" x1="170.135" y1="55.6843" x2="194.892" y2="25.2826" gradientUnits="userSpaceOnUse">
<stop stop-color="#CF47FF"/>
<stop offset="1" stop-color="#FBA04C"/>
</linearGradient>
</defs>
</svg>
