<svg width="18" height="18" viewBox="0 0 18 18" fill="none" xmlns="http://www.w3.org/2000/svg">
  <path fill-rule="evenodd" clip-rule="evenodd" d="M9.00033 17.3334C13.6027 17.3334 17.3337 13.6025 17.3337 9.00008C17.3337 4.39771 13.6027 0.666748 9.00033 0.666748C4.39795 0.666748 0.666992 4.39771 0.666992 9.00008C0.666992 13.6025 4.39795 17.3334 9.00033 17.3334ZM7.08958 5.91083C6.76414 5.58539 6.23651 5.58539 5.91107 5.91083C5.58563 6.23626 5.58563 6.7639 5.91107 7.08934L7.82181 9.00008L5.91107 10.9108C5.58563 11.2363 5.58563 11.7639 5.91107 12.0893C6.23651 12.4148 6.76414 12.4148 7.08958 12.0893L9.00033 10.1786L10.9111 12.0893C11.2365 12.4148 11.7641 12.4148 12.0896 12.0893C12.415 11.7639 12.415 11.2363 12.0896 10.9108L10.1788 9.00008L12.0896 7.08934C12.415 6.7639 12.415 6.23626 12.0896 5.91083C11.7641 5.58539 11.2365 5.58539 10.9111 5.91083L9.00033 7.82157L7.08958 5.91083Z" fill="white"/>
</svg>
