<svg width="14" height="14" viewBox="0 0 14 14" fill="none" xmlns="http://www.w3.org/2000/svg">
    <path fill-rule="evenodd" clip-rule="evenodd" d="M11.6673 6.99998C11.6673 9.57731 9.57798 11.6666 7.00065 11.6666C4.42332 11.6666 2.33398 9.57731 2.33398 6.99998C2.33398 4.42265 4.42332 2.33331 7.00065 2.33331C9.57798 2.33331 11.6673 4.42265 11.6673 6.99998ZM13.6673 6.99998C13.6673 10.6819 10.6825 13.6666 7.00065 13.6666C3.31875 13.6666 0.333984 10.6819 0.333984 6.99998C0.333984 3.31808 3.31875 0.333313 7.00065 0.333313C10.6825 0.333313 13.6673 3.31808 13.6673 6.99998ZM7.00065 2.66665C7.55294 2.66665 8.00065 3.11436 8.00065 3.66665V5.99998H10.334C10.8863 5.99998 11.334 6.44769 11.334 6.99998C11.334 7.55226 10.8863 7.99998 10.334 7.99998H8.00065V10.3333C8.00065 10.8856 7.55294 11.3333 7.00065 11.3333C6.44837 11.3333 6.00065 10.8856 6.00065 10.3333V7.99998H3.66732C3.11503 7.99998 2.66732 7.55226 2.66732 6.99998C2.66732 6.44769 3.11503 5.99998 3.66732 5.99998H6.00065V3.66665C6.00065 3.11436 6.44837 2.66665 7.00065 2.66665Z" fill="#777E91"/>
</svg>