<svg width="20" height="20" viewBox="0 0 20 20" fill="none" xmlns="http://www.w3.org/2000/svg">
<path fill-rule="evenodd" clip-rule="evenodd" d="M9.99935 16.6677C13.6812 16.6677 16.666 13.6829 16.666 10.001C16.666 6.3191 13.6812 3.33433 9.99935 3.33433C6.31745 3.33433 3.33268 6.3191 3.33268 10.001C3.33268 13.6829 6.31745 16.6677 9.99935 16.6677ZM9.99935 18.3343C14.6017 18.3343 18.3327 14.6034 18.3327 10.001C18.3327 5.39862 14.6017 1.66766 9.99935 1.66766C5.39698 1.66766 1.66602 5.39862 1.66602 10.001C1.66602 14.6034 5.39698 18.3343 9.99935 18.3343Z" fill="currentColor"/>
<path d="M9.16602 5.83434C9.16602 5.3741 9.53911 5.00101 9.99935 5.00101C10.4596 5.00101 10.8327 5.3741 10.8327 5.83434C12.2134 5.83434 13.3327 6.95363 13.3327 8.33434C13.3327 8.79458 12.9596 9.16767 12.4993 9.16767C12.0391 9.16767 11.666 8.79458 11.666 8.33434C11.666 7.8741 11.2929 7.50101 10.8327 7.50101H8.9522C8.61005 7.50101 8.33268 7.77837 8.33268 8.12052C8.33268 8.38718 8.50332 8.62392 8.75629 8.70824L11.7695 9.71263C12.703 10.0238 13.3327 10.8975 13.3327 11.8815C13.3327 13.1441 12.3091 14.1677 11.0465 14.1677H10.8327C10.8327 14.6279 10.4596 15.001 9.99935 15.001C9.53911 15.001 9.16602 14.6279 9.16602 14.1677C7.7853 14.1677 6.66602 13.0484 6.66602 11.6677C6.66602 11.2074 7.03911 10.8343 7.49935 10.8343C7.95959 10.8343 8.33268 11.2074 8.33268 11.6677C8.33268 12.1279 8.70578 12.501 9.16602 12.501H11.0465C11.3886 12.501 11.666 12.2236 11.666 11.8815C11.666 11.6148 11.4954 11.3781 11.2424 11.2938L8.22924 10.2894C7.2957 9.9782 6.66602 9.10456 6.66602 8.12052C6.66602 6.8579 7.68957 5.83434 8.9522 5.83434H9.16602Z" fill="currentColor"/>
</svg>
