<svg width="16" height="16" viewBox="0 0 16 16" fill="none" xmlns="http://www.w3.org/2000/svg">
    <path d="M8 0L9.0731 0.880418L10.358 0.355418L11.124 1.51302L12.5066 1.39009L12.8972 2.72203L14.2547 3.01208L14.2354 4.4L15.447 5.07727L15.0195 6.39785L15.9776 7.40216L15.1799 8.53806L15.7994 9.78017L14.7023 10.6305L14.9282 12L13.6292 12.4891L13.4414 13.8644L12.0559 13.9489L11.4711 15.2078L10.1222 14.8801L9.19234 15.9106L8 15.2L6.80766 15.9106L5.87776 14.8801L4.52893 15.2078L3.9441 13.9489L2.55862 13.8644L2.37081 12.4891L1.0718 12L1.29771 10.6305L0.200577 9.78017L0.820133 8.53806L0.0223694 7.40216L0.980519 6.39785L0.55301 5.07727L1.76462 4.4L1.74535 3.01208L3.10276 2.72203L3.49344 1.39009L4.87604 1.51302L5.64196 0.355418L6.9269 0.880418L8 0Z" fill="#45B26B"/>
    <path d="M10.6673 6L7.00065 9.66667L5.33398 8" stroke="white" stroke-linecap="round" stroke-linejoin="round"/>
</svg>