<svg width="20" height="21" viewBox="0 0 20 21" fill="none" xmlns="http://www.w3.org/2000/svg">
<path d="M16.6667 8.12695H9.16667C8.24619 8.12695 7.5 8.87315 7.5 9.79362V17.2936C7.5 18.2141 8.24619 18.9603 9.16667 18.9603H16.6667C17.5871 18.9603 18.3333 18.2141 18.3333 17.2936V9.79362C18.3333 8.87315 17.5871 8.12695 16.6667 8.12695Z" stroke="currentColor" stroke-opacity="0.7" stroke-width="1.5" stroke-linecap="round" stroke-linejoin="round"/>
<path d="M4.1665 13.1268H3.33317C2.89114 13.1268 2.46722 12.9512 2.15466 12.6386C1.8421 12.3261 1.6665 11.9022 1.6665 11.4601V3.96012C1.6665 3.5181 1.8421 3.09417 2.15466 2.78161C2.46722 2.46905 2.89114 2.29346 3.33317 2.29346H10.8332C11.2752 2.29346 11.6991 2.46905 12.0117 2.78161C12.3242 3.09417 12.4998 3.5181 12.4998 3.96012V4.79346" stroke="currentColor" stroke-opacity="0.7" stroke-width="1.5" stroke-linecap="round" stroke-linejoin="round"/>
</svg>
