<svg width="20" height="20" viewBox="0 0 20 20" fill="none" xmlns="http://www.w3.org/2000/svg">
<path fill-rule="evenodd" clip-rule="evenodd" d="M9.99935 18.3343C14.6017 18.3343 18.3327 14.6034 18.3327 10.001C18.3327 5.39862 14.6017 1.66766 9.99935 1.66766C5.39698 1.66766 1.66602 5.39862 1.66602 10.001C1.66602 14.6034 5.39698 18.3343 9.99935 18.3343ZM8.0886 6.91174C7.76317 6.5863 7.23553 6.5863 6.91009 6.91174C6.58466 7.23718 6.58466 7.76482 6.91009 8.09025L8.82084 10.001L6.91009 11.9117C6.58466 12.2372 6.58466 12.7648 6.91009 13.0903C7.23553 13.4157 7.76317 13.4157 8.0886 13.0903L9.99935 11.1795L11.9101 13.0903C12.2355 13.4157 12.7632 13.4157 13.0886 13.0903C13.414 12.7648 13.414 12.2372 13.0886 11.9117L11.1779 10.001L13.0886 8.09025C13.414 7.76482 13.414 7.23718 13.0886 6.91174C12.7632 6.5863 12.2355 6.5863 11.9101 6.91174L9.99935 8.82249L8.0886 6.91174Z" fill="#EF466F"/>
</svg>
