<svg width="15" height="14" viewBox="0 0 15 14" fill="none" xmlns="http://www.w3.org/2000/svg">
<path d="M13.8736 6.15903L12.9669 5.10569C12.7936 4.90569 12.6536 4.53236 12.6536 4.26569V3.13236C12.6536 2.42569 12.0736 1.84569 11.3669 1.84569H10.2336C9.97361 1.84569 9.59361 1.70569 9.39361 1.53236L8.34027 0.625688C7.88027 0.232355 7.12694 0.232355 6.66027 0.625688L5.61358 1.53902C5.41358 1.70569 5.03358 1.84569 4.77358 1.84569H3.62025C2.91358 1.84569 2.33358 2.42569 2.33358 3.13236V4.27236C2.33358 4.53236 2.19358 4.90569 2.02691 5.10569L1.12691 6.1657C0.740247 6.6257 0.740247 7.37236 1.12691 7.83236L2.02691 8.89236C2.19358 9.09236 2.33358 9.4657 2.33358 9.7257V10.8657C2.33358 11.5724 2.91358 12.1524 3.62025 12.1524H4.77358C5.03358 12.1524 5.41358 12.2924 5.61358 12.4657L6.66694 13.3724C7.12694 13.7657 7.88027 13.7657 8.34694 13.3724L9.40027 12.4657C9.60027 12.2924 9.97361 12.1524 10.2403 12.1524H11.3736C12.0803 12.1524 12.6603 11.5724 12.6603 10.8657V9.73236C12.6603 9.47236 12.8003 9.09236 12.9736 8.89236L13.8803 7.83903C14.2669 7.37903 14.2669 6.61903 13.8736 6.15903ZM10.2736 5.73903L7.05361 8.95903C6.96027 9.05236 6.83361 9.1057 6.70027 9.1057C6.56694 9.1057 6.44027 9.05236 6.34694 8.95903L4.73358 7.3457C4.54025 7.15236 4.54025 6.83236 4.73358 6.63903C4.92691 6.4457 5.24691 6.4457 5.44025 6.63903L6.70027 7.89903L9.56694 5.03236C9.76027 4.83902 10.0803 4.83902 10.2736 5.03236C10.4669 5.22569 10.4669 5.54569 10.2736 5.73903Z" fill="white"/>
</svg>
