<svg width="16" height="14" viewBox="0 0 16 14" fill="none" xmlns="http://www.w3.org/2000/svg">
    <path d="M13.3328 11.5332V4.97727L14.3231 5.57148C14.6388 5.76091 15.0483 5.65854 15.2378 5.34282C15.4272 5.02709 15.3248 4.61759 15.0091 4.42816L11.6612 2.41939L9.10037 0.876531L9.10032 0.876503C8.91417 0.764347 8.7713 0.678271 8.65023 0.613548C8.62197 0.597742 8.59328 0.58304 8.56422 0.569443C8.46345 0.520271 8.37611 0.48754 8.28637 0.467764C8.09734 0.42611 7.90152 0.42611 7.71249 0.467765C7.62252 0.487592 7.53496 0.520442 7.43386 0.569828C7.40532 0.583202 7.37714 0.597641 7.34939 0.613145C7.22816 0.677913 7.0851 0.764105 6.89856 0.876493L6.89853 0.876512L4.33389 2.42169L0.989786 4.42816C0.674066 4.61759 0.571689 5.02709 0.761121 5.34282C0.950553 5.65854 1.36006 5.76091 1.67578 5.57148L2.6661 4.97729V11.5332C2.6661 12.2799 2.6661 12.6533 2.81142 12.9385C2.93925 13.1894 3.14323 13.3934 3.39411 13.5212C3.67933 13.6665 4.05269 13.6665 4.79943 13.6665L5.99943 13.6665V9.6665C5.99943 8.56193 6.89486 7.6665 7.99943 7.6665C9.104 7.6665 9.99943 8.56193 9.99943 9.6665V13.6665L11.1994 13.6665C11.9462 13.6665 12.3195 13.6665 12.6048 13.5212C12.8556 13.3934 13.0596 13.1894 13.1874 12.9385C13.3328 12.6533 13.3328 12.2799 13.3328 11.5332Z" fill="#777E91"/>
</svg>