<svg width="20" height="20" viewBox="0 0 20 20" fill="none" xmlns="http://www.w3.org/2000/svg">
<path fill-rule="evenodd" clip-rule="evenodd" d="M9.99935 16.6677C13.6812 16.6677 16.666 13.6829 16.666 10.001C16.666 6.3191 13.6812 3.33433 9.99935 3.33433C6.31745 3.33433 3.33268 6.3191 3.33268 10.001C3.33268 13.6829 6.31745 16.6677 9.99935 16.6677ZM9.99935 18.3343C14.6017 18.3343 18.3327 14.6034 18.3327 10.001C18.3327 5.39862 14.6017 1.66766 9.99935 1.66766C5.39698 1.66766 1.66602 5.39862 1.66602 10.001C1.66602 14.6034 5.39698 18.3343 9.99935 18.3343Z" fill="currentColor"/>
<path fill-rule="evenodd" clip-rule="evenodd" d="M9.99935 5.83429C9.53911 5.83429 9.16602 6.20739 9.16602 6.66762C9.16602 7.12786 9.53911 7.50096 9.99935 7.50096C10.4596 7.50096 10.8327 7.12786 10.8327 6.66762C10.8327 6.20739 10.4596 5.83429 9.99935 5.83429ZM9.99935 9.16762C9.53911 9.16762 9.16602 9.54072 9.16602 10.001V13.3343C9.16602 13.7945 9.53911 14.1676 9.99935 14.1676C10.4596 14.1676 10.8327 13.7945 10.8327 13.3343V10.001C10.8327 9.54072 10.4596 9.16762 9.99935 9.16762Z" fill="currentColor"/>
</svg>
