<svg width="32" height="32" viewBox="0 0 32 32" fill="none" xmlns="http://www.w3.org/2000/svg">
<path d="M15.6443 0.0106188C14.1062 0.0644202 12.6612 0.786969 11.1145 2.20161C9.56779 3.61626 7.54526 7.80583 7.54526 7.80583C7.54526 7.80583 7.16203 8.70242 6.01966 11.4643C4.8773 14.2262 3.36576 20.311 5.40371 25.1081C6.76748 28.3182 8.37808 29.5697 10.6386 30.8211C12.8991 32.0725 18.857 32.4427 21.2368 31.367C24.3305 29.9686 25.6989 28.962 26.9482 24.7668C27.3153 21.0946 26.5385 18.3278 25.5799 15.8923C24.6213 13.4569 24.7734 13.6007 23.9735 12.1274C22.9026 9.86848 22.1292 8.84657 22.1292 6.58762C20.9393 2.26957 20.4039 2.05444 19.1545 1.03253C17.6671 0.079693 17.1824 -0.0431826 15.6443 0.0106188Z" fill="#203516"/>
<path d="M16.6777 0.40226C15.2888 0.402251 13.8999 1.08336 12.4554 2.44561C11.0109 3.80786 9.12206 7.84225 9.12206 7.84225C9.12206 7.84225 8.76416 8.70564 7.69729 11.3652C6.63042 14.0248 5.21877 19.8843 7.12204 24.5037C8.39569 27.5949 9.89984 28.8 12.011 30.0051C14.1221 31.2102 18.8546 31.5046 21.6222 30.529C24.9253 29.3647 25.8177 28.424 26.9481 24.2288C27.543 19.9798 26.3357 18.0761 25.4404 15.7309C24.5451 13.3856 24.7128 13.7346 24.0329 12.2886C23.1404 10.3909 22.5126 8.60072 22.4265 6.94869C21.4417 3.16849 20.6417 2.32321 19.6303 1.40888C18.2619 0.333191 17.3695 0.402265 16.6777 0.40226Z" fill="#396325"/>
<path d="M17.8953 2.15925C17.112 2.24894 16.109 2.69207 15.2702 3.6948C14.4314 4.69753 13.4523 7.32454 13.4523 7.32454C13.4523 7.32454 12.6588 9.70349 11.9011 12.266C11.1434 14.8286 9.69306 19.4759 10.2242 23.1776C10.7287 26.6937 12.0434 28.0115 14.2674 29.2177C16.4913 30.4239 19.7669 30.8434 22.047 30.2071C24.327 29.5708 26.8981 27.8655 27.3008 22.6957C27.7035 17.5259 23.2143 11.4627 22.6546 8.32139C22.3941 6.85956 22.0658 4.16204 20.6567 2.86033C19.7454 2.01857 18.6786 2.06957 17.8953 2.15925Z" fill="#FBFF30"/>
<path fill-rule="evenodd" clip-rule="evenodd" d="M20.5719 2.9359C19.7023 2.13266 18.6869 2.1774 17.9105 2.2663C17.162 2.352 16.1867 2.77808 15.3653 3.76001C14.9568 4.24845 14.5074 5.14305 14.1572 5.92633C13.9831 6.31584 13.835 6.67427 13.7305 6.93535C13.6782 7.06586 13.6369 7.17197 13.6086 7.24539C13.5945 7.2821 13.5836 7.31063 13.5763 7.32995C13.5726 7.33961 13.5699 7.34696 13.568 7.35189L13.5659 7.35761L13.5574 7.38315C13.5514 7.40116 13.5425 7.42793 13.5309 7.46292C13.5078 7.53289 13.4739 7.63574 13.4308 7.76718C13.3446 8.03006 13.2218 8.40729 13.0754 8.86458C12.7824 9.7792 12.3949 11.0138 12.0163 12.2941C11.9853 12.399 11.9532 12.5072 11.9201 12.6187C11.1421 15.2394 9.83648 19.6379 10.3424 23.1641C10.5933 24.9125 11.0442 26.1036 11.7006 27.005C12.3566 27.9058 13.2244 28.5268 14.3288 29.1258C16.5268 30.3179 19.7676 30.7311 22.0121 30.1046C23.1347 29.7914 24.3241 29.2166 25.2837 28.0863C26.244 26.9552 26.9821 25.2584 27.1823 22.6885C27.3816 20.1304 26.3701 17.3425 25.2285 14.7885C24.9435 14.1509 24.6509 13.5289 24.3676 12.9294C24.3407 12.8724 24.3138 12.8155 24.287 12.7589C24.0325 12.2206 23.7869 11.701 23.5634 11.2066C23.0701 10.1158 22.6796 9.13761 22.5373 8.33882C22.5119 8.1961 22.4859 8.04221 22.4584 7.87946C22.3442 7.20357 22.2043 6.37478 21.9714 5.55799C21.6819 4.54264 21.2538 3.56586 20.5719 2.9359ZM13.4525 7.32487C13.3386 7.29382 13.3386 7.29383 13.3386 7.29385L13.3294 7.32127C13.3234 7.33936 13.3145 7.3662 13.3029 7.40127C13.2797 7.47141 13.2457 7.57443 13.2026 7.70606C13.1163 7.96931 12.9934 8.34697 12.8468 8.80474C12.5536 9.72023 12.1655 10.9564 11.7864 12.2386C11.7545 12.3464 11.7214 12.4579 11.6872 12.573C10.9112 15.1863 9.59417 19.6216 10.1064 23.1918C10.36 24.9594 10.8188 26.1853 11.5018 27.1233C12.1854 28.062 13.0868 28.7031 14.2064 29.3103C16.4563 30.5306 19.7668 30.9564 22.0823 30.3102C23.2398 29.9872 24.4759 29.3912 25.4725 28.2173C26.4684 27.0442 27.2172 25.3035 27.4197 22.7036C27.6232 20.0919 26.5914 17.2633 25.4491 14.7079C25.1632 14.0681 24.8698 13.4444 24.5865 12.8449C24.5595 12.7879 24.5327 12.7311 24.5059 12.6745C24.2513 12.1359 24.0065 11.618 23.7837 11.1252C23.2903 10.0342 22.9098 9.07647 22.7723 8.30461C22.7473 8.16468 22.7217 8.01282 22.6944 7.8515C22.5803 7.17534 22.438 6.33279 22.2018 5.5043C21.9098 4.48001 21.4691 3.45717 20.7419 2.78542C19.789 1.90513 18.6707 1.9624 17.8806 2.05287C17.0624 2.14654 16.0317 2.6067 15.1755 3.63025C14.7453 4.14454 14.2857 5.06481 13.9366 5.84572C13.7611 6.2383 13.612 6.59929 13.5067 6.86211C13.4541 6.99355 13.4124 7.10051 13.3838 7.17467C13.3696 7.21175 13.3586 7.24064 13.3511 7.26029C13.3474 7.27012 13.3446 7.27764 13.3427 7.28272L13.3405 7.2885L13.3398 7.29037L13.3398 7.29048C13.3397 7.2905 13.3397 7.29052 13.4525 7.32487ZM13.4525 7.32487L13.3398 7.29048L13.3391 7.29216L13.3386 7.29385L13.4525 7.32487Z" fill="#203516"/>
<ellipse rx="4.19424" ry="5.81579" transform="matrix(0.953066 -0.302761 0.267309 0.963611 19.5896 19.1087)" fill="#D8DB47"/>
<ellipse rx="4.04484" ry="5.13924" transform="matrix(0.972139 -0.234404 0.213827 0.976872 19.0804 19.456)" fill="#624141"/>
<ellipse rx="1.94875" ry="2.46306" transform="matrix(0.93498 -0.3547 0.356357 0.93435 20.1334 18.2869)" fill="#845656"/>
</svg>
