<svg width="24" height="24" viewBox="0 0 24 24" fill="none" xmlns="http://www.w3.org/2000/svg">
<circle cx="12" cy="12" r="12" fill="#8247E5"/>
<path d="M15.2112 9.83973C14.9787 9.70272 14.6765 9.70272 14.4208 9.83973L12.6075 10.8902L11.3754 11.5752L9.56216 12.6256C9.32969 12.7626 9.02748 12.7626 8.77176 12.6256L7.33043 11.8035C7.09796 11.6665 6.93523 11.4154 6.93523 11.1413V9.52004C6.93523 9.24602 7.07471 8.99483 7.33043 8.85782L8.74851 8.05858C8.98098 7.92157 9.28319 7.92157 9.53891 8.05858L10.957 8.85782C11.1895 8.99483 11.3522 9.24602 11.3522 9.52004V10.5705L12.5843 9.86257V8.81215C12.5843 8.53812 12.4448 8.28694 12.1891 8.14992L9.56216 6.6428C9.32969 6.50579 9.02748 6.50579 8.77176 6.6428L6.09833 8.14992C5.84261 8.28694 5.70312 8.53812 5.70312 8.81215V11.8492C5.70312 12.1233 5.84261 12.3745 6.09833 12.5115L8.77176 14.0186C9.00423 14.1556 9.30644 14.1556 9.56216 14.0186L11.3754 12.991L12.6075 12.2831L14.4208 11.2555C14.6533 11.1185 14.9555 11.1185 15.2112 11.2555L16.6293 12.0548C16.8618 12.1918 17.0245 12.443 17.0245 12.717V14.3383C17.0245 14.6123 16.885 14.8635 16.6293 15.0005L15.2112 15.8226C14.9787 15.9596 14.6765 15.9596 14.4208 15.8226L13.0028 15.0233C12.7703 14.8863 12.6075 14.6351 12.6075 14.3611V13.3107L11.3754 14.0186V15.069C11.3754 15.343 11.5149 15.5942 11.7706 15.7312L14.4441 17.2384C14.6765 17.3754 14.9787 17.3754 15.2345 17.2384L17.9079 15.7312C18.1404 15.5942 18.3031 15.343 18.3031 15.069V12.0319C18.3031 11.7579 18.1636 11.5067 17.9079 11.3697L15.2112 9.83973Z" fill="white"/>
</svg>
