<svg width="20" height="20" viewBox="0 0 20 20" fill="none" xmlns="http://www.w3.org/2000/svg">
<path fill-rule="evenodd" clip-rule="evenodd" d="M20 6C20 7.10457 19.1046 8 18 8C16.8954 8 16 7.10457 16 6C16 4.89543 16.8954 4 18 4C19.1046 4 20 4.89543 20 6ZM22 6C22 8.20914 20.2091 10 18 10C16.7902 10 15.7058 9.4629 14.9723 8.61414L9.86634 10.9708C9.95353 11.2992 10 11.6442 10 12C10 12.4424 9.92818 12.868 9.79557 13.2658L14.8135 15.5818C15.544 14.6206 16.6995 14 18 14C20.2091 14 22 15.7909 22 18C22 20.2091 20.2091 22 18 22C15.7909 22 14 20.2091 14 18C14 17.8057 14.0139 17.6147 14.0406 17.4278L8.69156 14.959C7.98097 15.6057 7.03653 16 6 16C3.79086 16 2 14.2091 2 12C2 9.79086 3.79086 8 6 8C7.13075 8 8.15192 8.46919 8.87943 9.22351L14.0844 6.82122C14.0291 6.55616 14 6.28148 14 6C14 3.79086 15.7909 2 18 2C20.2091 2 22 3.79086 22 6ZM6 14C7.10457 14 8 13.1046 8 12C8 10.8954 7.10457 10 6 10C4.89543 10 4 10.8954 4 12C4 13.1046 4.89543 14 6 14ZM18 20C19.1046 20 20 19.1046 20 18C20 16.8954 19.1046 16 18 16C16.8954 16 16 16.8954 16 18C16 19.1046 16.8954 20 18 20Z" fill="#777E91"/>
</svg>
