<svg width="20" height="20" viewBox="0 0 20 20" fill="none" xmlns="http://www.w3.org/2000/svg">
    <path fill-rule="evenodd" clip-rule="evenodd" d="M18 4C18 5.10457 17.1046 6 16 6C14.8954 6 14 5.10457 14 4C14 2.89543 14.8954 2 16 2C17.1046 2 18 2.89543 18 4ZM20 4C20 6.20914 18.2091 8 16 8C14.7902 8 13.7058 7.4629 12.9723 6.61414L7.86634 8.97075C7.95353 9.29916 8 9.64415 8 10C8 10.4424 7.92818 10.868 7.79557 11.2658L12.8135 13.5818C13.544 12.6206 14.6995 12 16 12C18.2091 12 20 13.7909 20 16C20 18.2091 18.2091 20 16 20C13.7909 20 12 18.2091 12 16C12 15.8057 12.0139 15.6147 12.0406 15.4278L6.69156 12.959C5.98097 13.6057 5.03653 14 4 14C1.79086 14 0 12.2091 0 10C0 7.79086 1.79086 6 4 6C5.13075 6 6.15192 6.46919 6.87943 7.22351L12.0844 4.82122C12.0291 4.55616 12 4.28148 12 4C12 1.79086 13.7909 0 16 0C18.2091 0 20 1.79086 20 4ZM4 12C5.10457 12 6 11.1046 6 10C6 8.89543 5.10457 8 4 8C2.89543 8 2 8.89543 2 10C2 11.1046 2.89543 12 4 12ZM16 18C17.1046 18 18 17.1046 18 16C18 14.8954 17.1046 14 16 14C14.8954 14 14 14.8954 14 16C14 17.1046 14.8954 18 16 18Z" fill="currentColor"/>
</svg>