<svg width="20" height="21" viewBox="0 0 20 21" fill="none" xmlns="http://www.w3.org/2000/svg">
  <path d="M17.258 3.6722C17.258 3.6722 18.8769 3.04095 18.742 4.57399C18.697 5.20525 18.2923 7.41462 17.9775 9.80437L16.8983 16.8834C16.8983 16.8834 16.8084 17.9205 15.9989 18.1008C15.1895 18.2812 13.9753 17.4696 13.7505 17.2892C13.5706 17.154 10.3778 15.1249 9.25358 14.133C8.93879 13.8624 8.57904 13.3213 9.29854 12.6901L14.0203 8.18117C14.5599 7.64008 15.0995 6.37758 12.8511 7.91062L6.55546 12.1941C6.55546 12.1941 5.83596 12.645 4.48692 12.2392L1.56393 11.3374C1.56393 11.3374 0.484671 10.6611 2.3284 9.98471C6.82529 7.8655 12.3565 5.70121 17.258 3.6722Z" fill="currentColor" fill-opacity="0.7"/>
</svg>
