<svg width="25" height="28" viewBox="0 0 25 28" fill="none" xmlns="http://www.w3.org/2000/svg">
<path d="M21.4924 5.97927L15.1001 2.28868C13.5531 1.39551 11.6471 1.39551 10.1001 2.28868L3.70779 5.97927C2.16079 6.87244 1.20779 8.52307 1.20779 10.3094V17.6906C1.20779 19.4769 2.16079 21.1276 3.70779 22.0207L10.1001 25.7113C11.6471 26.6045 13.5531 26.6045 15.1001 25.7113L21.4924 22.0207C23.0394 21.1276 23.9924 19.4769 23.9924 17.6906V10.3094C23.9924 8.52307 23.0394 6.87244 21.4924 5.97927Z" fill="#45B36B" stroke="#FCFCFD" stroke-width="2"/>
<path d="M11.7025 9.56319C11.8071 9.38022 11.6523 9.15792 11.4444 9.19256L10.4727 9.35451C10.3242 9.37927 10.2311 9.52873 10.2743 9.67295L10.577 10.6818C10.6401 10.8923 10.9245 10.9248 11.0335 10.734L11.7025 9.56319Z" fill="#FCFCFD"/>
<path d="M9.41674 10.296C9.361 10.1102 9.12498 10.0567 8.99839 10.2037C8.60583 10.6594 8.23506 11.1383 7.85112 11.599C7.82975 11.6246 7.80937 11.6508 7.78996 11.6775C7.68584 11.8206 7.80414 12.0002 7.98114 12.0002H9.592C9.75947 12.0002 9.87958 11.8388 9.83146 11.6784L9.41674 10.296Z" fill="#FCFCFD"/>
<path d="M7.90829 13C7.74012 13 7.62072 13.1639 7.70493 13.3095C7.73195 13.3562 7.7617 13.4018 7.7942 13.4461L11.3908 18.3506C11.4509 18.4326 11.5173 18.5064 11.5887 18.5719C11.744 18.7145 11.9387 18.5502 11.8766 18.3487L10.2827 13.1764C10.2504 13.0715 10.1535 13 10.0438 13H7.90829Z" fill="#FCFCFD"/>
<path d="M13.3239 18.3488C13.2618 18.5503 13.4564 18.7147 13.6117 18.5721C13.6832 18.5065 13.7496 18.4327 13.8098 18.3506L17.4064 13.4461C17.4389 13.4018 17.4687 13.3562 17.4957 13.3095C17.5799 13.1639 17.4605 13 17.2923 13H15.1568C15.047 13 14.9501 13.0715 14.9178 13.1764L13.3239 18.3488Z" fill="#FCFCFD"/>
<path d="M17.219 11.9998C17.396 11.9998 17.5143 11.8202 17.4102 11.6771C17.3908 11.6504 17.3704 11.6242 17.349 11.5986C16.9651 11.1378 16.5943 10.659 16.2017 10.2032C16.0751 10.0562 15.8391 10.1097 15.7834 10.2955L15.3686 11.678C15.3205 11.8384 15.4406 11.9998 15.6081 11.9998H17.219Z" fill="#FCFCFD"/>
<path d="M14.7278 9.35453C14.8763 9.37928 14.9694 9.52874 14.9262 9.67296L14.6235 10.6819C14.5604 10.8924 14.276 10.9249 14.167 10.7341L13.4979 9.5632C13.3933 9.38022 13.5482 9.15792 13.756 9.19256L14.7278 9.35453Z" fill="#FCFCFD"/>
<path d="M12.6001 10.0078L13.5248 11.626C13.62 11.7927 13.4997 12 13.3077 12H11.8925C11.7005 12 11.5802 11.7927 11.6754 11.626L12.6001 10.0078Z" fill="#FCFCFD"/>
<path d="M12.8389 16.5232C12.7665 16.7586 12.4334 16.7586 12.361 16.5232L11.3765 13.3235C11.327 13.1628 11.4472 13 11.6154 13H13.5845C13.7527 13 13.8729 13.1628 13.8234 13.3235L12.8389 16.5232Z" fill="#FCFCFD"/>
</svg>
