<svg width="44" height="44" viewBox="0 0 44 44" fill="none" xmlns="http://www.w3.org/2000/svg">
<path fill-rule="evenodd" clip-rule="evenodd" d="M22 0C34.1516 0 44 9.84844 44 22C44 34.1516 34.1516 44 22 44C9.84844 44 0 34.1516 0 22C0 9.84844 9.84844 0 22 0Z" fill="url(#paint0_radial_2724_15239)"/>
<path d="M13.9824 16.99C18.4082 12.6674 25.5926 12.6674 30.0184 16.99L30.5512 17.5143C30.7746 17.7291 30.7746 18.0814 30.5512 18.2963L28.7293 20.0752C28.6176 20.1869 28.4371 20.1869 28.3254 20.0752L27.5949 19.3619C24.5012 16.3455 19.4996 16.3455 16.4059 19.3619L15.6238 20.1268C15.5121 20.2385 15.3316 20.2385 15.2199 20.1268L13.398 18.3479C13.1746 18.133 13.1746 17.7807 13.398 17.5658L13.9824 16.99ZM33.791 20.6682L35.4152 22.2494C35.6387 22.4643 35.6387 22.8166 35.4152 23.0314L28.102 30.1729C27.8785 30.3877 27.5176 30.3877 27.3027 30.1729L22.1121 25.1025C22.0605 25.051 21.966 25.051 21.9145 25.1025L16.7238 30.1729C16.5004 30.3877 16.1395 30.3877 15.9246 30.1729L8.58555 23.0314C8.36211 22.8166 8.36211 22.4643 8.58555 22.2494L10.2098 20.6682C10.4332 20.4533 10.7941 20.4533 11.009 20.6682L16.1996 25.7385C16.2512 25.79 16.3457 25.79 16.3973 25.7385L21.5879 20.6682C21.8113 20.4533 22.1723 20.4533 22.3871 20.6682L27.5777 25.7385C27.6293 25.79 27.7238 25.79 27.7754 25.7385L32.966 20.6682C33.2066 20.4533 33.5676 20.4533 33.791 20.6682Z" fill="white"/>
<defs>
<radialGradient id="paint0_radial_2724_15239" cx="0" cy="0" r="1" gradientUnits="userSpaceOnUse" gradientTransform="translate(0.000136375 22.0007) scale(44)">
<stop stop-color="#5D9DF6"/>
<stop offset="1" stop-color="#006FFF"/>
</radialGradient>
</defs>
</svg>
