<svg width="17" height="17" viewBox="0 0 17 17" fill="none" xmlns="http://www.w3.org/2000/svg">
  <path d="M15.7998 4.32683C13.3998 0.626831 8.49978 -0.473169 4.69978 1.82683C0.999779 4.12683 -0.20022 9.12683 2.19978 12.8268L2.39978 13.1268L1.59978 16.1268L4.59978 15.3268L4.89978 15.5268C6.19978 16.2268 7.59978 16.6268 8.99978 16.6268C10.4998 16.6268 11.9998 16.2268 13.2998 15.4268C16.9998 13.0268 18.0998 8.12683 15.7998 4.32683ZM13.6998 12.0268C13.2998 12.6268 12.7998 13.0268 12.0998 13.1268C11.6998 13.1268 11.1998 13.3268 9.19978 12.5268C7.49978 11.7268 6.09978 10.4268 5.09978 8.92683C4.49978 8.22683 4.19978 7.32683 4.09978 6.42683C4.09978 5.62683 4.39978 4.92683 4.89978 4.42683C5.09978 4.22683 5.29978 4.12683 5.49978 4.12683H5.99978C6.19978 4.12683 6.39978 4.12683 6.49978 4.52683C6.69978 5.02683 7.19978 6.22683 7.19978 6.32683C7.29978 6.42683 7.29978 6.62683 7.19978 6.72683C7.29978 6.92683 7.19978 7.12683 7.09978 7.22683C6.99978 7.32683 6.89978 7.52683 6.79978 7.62683C6.59978 7.72683 6.49978 7.92683 6.59978 8.12683C6.99978 8.72683 7.49978 9.32683 7.99978 9.82683C8.59978 10.3268 9.19978 10.7268 9.89978 11.0268C10.0998 11.1268 10.2998 11.1268 10.3998 10.9268C10.4998 10.7268 10.9998 10.2268 11.1998 10.0268C11.3998 9.82683 11.4998 9.82683 11.6998 9.92683L13.2998 10.7268C13.4998 10.8268 13.6998 10.9268 13.7998 11.0268C13.8998 11.3268 13.8998 11.7268 13.6998 12.0268Z" fill="currentColor" fill-opacity="0.7"/>
</svg>
